<?xml version="1.0" standalone="no"?>
<!DOCTYPE svg PUBLIC "-//W3C//DTD SVG 20010904//EN"
 "http://www.w3.org/TR/2001/REC-SVG-20010904/DTD/svg10.dtd">
<svg version="1.0" xmlns="http://www.w3.org/2000/svg"
 width="89.000000pt" height="89.000000pt" viewBox="0 0 89.000000 89.000000"
 preserveAspectRatio="xMidYMid meet">
<metadata>
Created by potrace 1.11, written by Peter Selinger 2001-2013
</metadata>
<g transform="translate(0.000000,89.000000) scale(0.100000,-0.100000)"
fill="#000000" stroke="none">
<path d="M17 794 c-6 -7 21 -36 67 -72 16 -12 26 -22 23 -22 -7 0 275 -280
282 -280 3 0 18 -17 32 -38 38 -55 31 -82 -42 -157 -35 -35 -67 -61 -71 -59
-4 3 -8 -1 -8 -8 0 -8 -3 -9 -8 -3 -9 13 -42 16 -42 4 0 -5 -7 -6 -16 -2 -9 3
-29 6 -45 7 -16 1 -28 6 -26 11 1 6 4 10 7 10 3 -1 26 21 51 47 26 26 45 48
43 48 -2 0 19 22 48 48 58 53 65 67 46 85 -22 21 -34 14 -100 -53 -34 -36 -66
-64 -70 -62 -5 1 -8 -2 -8 -7 0 -5 -41 -50 -92 -100 l-91 -91 301 0 301 0 129
129 c70 71 135 140 143 153 19 30 24 100 8 130 -6 13 -27 38 -45 56 -18 17
-31 32 -28 32 3 0 -9 12 -27 28 -18 15 -64 60 -103 100 l-70 72 -291 0 c-160
0 -294 -3 -298 -6z m213 -55 c0 7 41 5 88 -5 12 -2 22 -11 22 -19 0 -8 3 -14
8 -13 4 2 55 -45 113 -103 103 -104 129 -145 106 -168 -6 -6 -7 -11 -2 -11 5
0 -4 -14 -20 -30 -34 -36 -41 -37 -50 -9 -4 12 -80 94 -169 183 -88 89 -162
167 -163 173 -2 7 9 8 32 3 19 -4 35 -5 35 -1z m300 2 c0 4 10 5 23 2 26 -6
137 -111 137 -130 0 -7 4 -13 9 -13 14 0 -1 -54 -21 -71 -10 -9 -18 -21 -18
-27 0 -22 -41 -8 -47 17 -6 26 -37 61 -53 61 -5 0 -10 4 -10 8 0 11 -121 132
-131 132 -5 0 -6 6 -3 13 3 10 19 11 59 7 30 -3 55 -3 55 1z m273 -227 c23
-31 39 -84 26 -84 -5 0 -9 -5 -9 -10 0 -12 -250 -264 -250 -253 0 5 -5 1 -10
-7 -5 -8 -10 -10 -10 -5 0 6 -28 9 -70 8 -38 -1 -70 0 -70 2 0 3 77 80 170
173 94 93 170 176 170 185 0 25 32 20 53 -9z"/>
</g>
</svg>
